<?xml version="1.0" encoding="UTF-8" standalone="no"?>
<!DOCTYPE svg PUBLIC "-//W3C//DTD SVG 1.1//EN" "http://www.w3.org/Graphics/SVG/1.1/DTD/svg11.dtd">
<svg width="100%" height="100%" viewBox="0 0 30 30" version="1.1" xmlns="http://www.w3.org/2000/svg" xmlns:xlink="http://www.w3.org/1999/xlink" xml:space="preserve" xmlns:serif="http://www.serif.com/" style="fill-rule:evenodd;clip-rule:evenodd;stroke-linejoin:round;stroke-miterlimit:2;">
    <rect x="0" y="0" width="30" height="30" style="fill:white;"/>
    <path d="M30,0L0,0L0,30L30,30L30,0ZM28.8,1.2L28.8,28.8C28.8,28.8 1.2,28.8 1.2,28.8C1.2,28.8 1.2,1.2 1.2,1.2L28.8,1.2Z" style="fill:rgb(130,130,130);"/>
    <g transform="matrix(1,0,0,0.243655,0,2.33708)">
        <rect x="2.953" y="3.09" width="24.133" height="7.705" style="fill:rgb(174,174,174);"/>
    </g>
    <g transform="matrix(0.474878,0,0,1.28426,1.55072,10.4645)">
        <rect x="2.953" y="3.09" width="24.133" height="7.705" style="fill:rgb(174,174,174);"/>
    </g>
    <g transform="matrix(0.474878,0,0,1.28426,14.2235,10.4645)">
        <rect x="2.953" y="3.09" width="24.133" height="7.705" style="fill:rgb(174,174,174);"/>
    </g>
    <g transform="matrix(1,0,0,1,0,2.50326)">
        <rect x="2.953" y="3.09" width="24.133" height="7.705" style="fill:rgb(135,135,135);"/>
    </g>
    <g transform="matrix(1,0,0,0.213198,0,24.9214)">
        <rect x="2.953" y="3.09" width="24.133" height="7.705" style="fill:rgb(174,174,174);"/>
    </g>
</svg>
